<?xml version="1.0" encoding="utf-8"?>
<!DOCTYPE svg PUBLIC "-//W3C//DTD SVG 1.1//EN" "http://www.w3.org/Graphics/SVG/1.1/DTD/svg11.dtd">
<svg version="1.1" id="don" xmlns="http://www.w3.org/2000/svg" xmlns:xlink="http://www.w3.org/1999/xlink" x="0px"
	 y="0px" viewBox="0 0 50 50" enable-background="new 0 0 50 50" xml:space="preserve">
<circle cx="25" cy="25" r="25"/>
<circle fill="#F8F0E0" cx="25" cy="25" r="23.5"/>
<circle fill="#F84828" cx="25" cy="25" r="19.2"/>
<g>
	<ellipse cx="15.2" cy="21.9" rx="4.1" ry="4.6"/>
	<ellipse cx="34.8" cy="21.9" rx="4.1" ry="4.6"/>
</g>
<g>
	<path fill="#DC1500" d="M25,27.5C25,27.5,25,27.6,25,27.5C25,27.6,25,27.5,25,27.5L25,27.5z"/>
	<path fill="#DC1500" d="M31.5,31.5c-3.4,1.5-6-0.7-6.5-3.9c-0.5,3.3-3.4,5.6-7,3.6c0.9,5,3.5,8.6,6.7,8.6
		C27.9,39.7,30.5,36.4,31.5,31.5z"/>
</g>
<path d="M34.4,29.3c-0.2-0.2-0.5-0.2-0.7,0c-2,2.1-3.7,2.1-4.8,1.8c-1.5-0.4-2.8-1.8-3.3-3.6c0-0.1,0-0.3-0.1-0.4
	c-0.2-0.2-0.6-0.2-0.8,0c-0.1,0.1-0.1,0.2-0.1,0.4c-0.4,1.5-1.5,2.7-3,3.2c-1.7,0.5-3.5,0-5.2-1.5c-0.2-0.2-0.5-0.2-0.7,0
	s-0.2,0.5,0,0.7c0.6,0.6,1.3,1,2,1.4c0,0,0,0.1,0,0.1c1,5.4,3.9,8.9,7.3,8.9c3.3,0,6.2-3.5,7.2-8.7c0.8-0.4,1.5-1,2.2-1.7
	C34.6,29.8,34.6,29.5,34.4,29.3z M24.9,39.3c-2.8,0-5.2-3-6.2-7.6c1,0.3,2.1,0.3,3.1-0.1c1.4-0.4,2.5-1.4,3.2-2.7
	c0.7,1.5,2,2.7,3.6,3.1c0.4,0.1,0.8,0.2,1.3,0.2c0.4,0,0.8-0.1,1.2-0.2C30,36.5,27.6,39.3,24.9,39.3z"/>
</svg>
